<svg width="1047" height="146" viewBox="0 0 1047 146" fill="none" xmlns="http://www.w3.org/2000/svg">
<g clip-path="url(#clip0_12_135)">
<path d="M42.13 0.619995H0V42.75H42.13V0.619995Z" fill="#597693"/>
<path d="M128.63 85.13H86.5V127.26H128.63V85.13Z" fill="#4A7DB7"/>
<path d="M86.0604 42.76H43.9404V84.89H86.0604V42.76Z" fill="#4A7DB7"/>
<path d="M128.63 0H86.5V42.14H128.63V0Z" fill="#38506C"/>
<path d="M184.88 122.2C180.15 117.73 177.85 110.11 177.85 103.8C177.85 97.69 179.82 91.38 184.56 86.38C187.91 82.83 193.83 79.74 200.99 79.74C206.97 79.74 211.9 81.98 214.27 83.36C215.12 83.88 215.45 83.82 215.58 83.36L216.1 81.45C216.23 81.06 216.36 81.06 216.96 81.06C217.55 81.06 217.68 81.19 217.68 82.11C217.68 83.36 219 93.02 219.32 94.86C219.39 95.19 219.32 95.45 219.06 95.51L218.07 95.78C217.74 95.85 217.61 95.78 217.41 95.25C216.49 93.08 215.04 89.93 212.28 87.1C209.52 84.27 206.04 82.04 200.84 82.04C189.08 82.04 184.34 92.49 184.41 102.09C184.41 105.9 185.59 113.33 190.72 118.98C195.19 123.97 198.94 124.5 203.34 124.5C210.77 124.5 216.55 120.43 219.57 116.15C219.77 115.82 219.9 115.75 220.1 115.95L220.95 116.61C221.15 116.74 221.28 116.87 221.08 117.2C217.13 122.92 210.76 128.24 201.49 128.24C193.75 128.25 188.82 125.81 184.88 122.2Z" fill="#38506C"/>
<path d="M231.28 109.78C231.15 110.37 231.08 111.42 231.08 112.93C231.08 119.37 235.16 124.24 240.41 124.24C244.42 124.24 247.24 121.94 248.36 119.77C248.49 119.51 248.75 119.37 248.95 119.44L249.8 119.9C250 119.96 250.13 120.17 249.8 120.89C248.62 123.52 245.2 128.05 239.35 128.05C235.6 128.05 231.46 126.93 229.03 123.38C226.73 120.02 226.14 117.6 226.14 112.99C226.14 110.43 226.8 106.03 230.28 102.54C233.11 99.65 236.39 99.06 239.68 99.06C247.24 99.06 249.34 106.16 249.34 108.72C249.34 109.64 248.55 109.77 247.5 109.77H231.28V109.78ZM241.73 107.8C242.98 107.8 243.51 107.48 243.51 106.88C243.51 105.37 242.72 101.03 238.45 101.03C235.56 101.03 232.8 102.94 231.55 107.8H241.73Z" fill="#38506C"/>
<path d="M281.169 123.71C281.169 124.76 281.759 125.09 282.619 125.09H284.719C285.309 125.09 285.439 125.29 285.439 125.68V126.73C285.439 127.19 285.309 127.45 284.909 127.45C284.449 127.45 282.409 127.25 278.669 127.25C275.309 127.25 273.209 127.45 272.749 127.45C272.359 127.45 272.219 127.25 272.219 126.73V125.68C272.219 125.22 272.419 125.09 273.079 125.09H274.979C275.699 125.09 276.229 124.77 276.299 123.58C276.369 121.87 276.429 119.77 276.429 118.06V109.39C276.429 106.76 276.429 104.85 274.519 103.47C272.939 102.29 271.359 102.29 269.719 102.29C268.669 102.29 266.369 102.75 264.399 104.85C263.089 106.3 262.889 108.07 262.889 109.32V122.92C262.889 124.7 263.089 125.09 264.469 125.09H266.109C266.639 125.09 266.769 125.29 266.769 125.75V126.87C266.769 127.26 266.639 127.46 266.309 127.46C265.849 127.46 264.079 127.26 260.589 127.26C257.239 127.26 255.139 127.46 254.739 127.46C254.409 127.46 254.279 127.26 254.279 126.87V125.69C254.279 125.3 254.409 125.1 254.939 125.1H256.849C257.699 125.1 258.159 124.9 258.159 123.79V108.4C258.159 106.43 257.109 105.31 255.459 104.52L254.929 104.26C254.469 104.06 254.399 103.87 254.399 103.67V103.34C254.399 103.01 254.659 102.81 254.989 102.68L260.639 99.5299C261.169 99.2699 261.559 99.0699 261.829 99.0699C262.159 99.0699 262.289 99.3299 262.359 99.8599L262.819 103.87H262.949C264.859 101.5 268.669 99.0699 271.949 99.0699C273.919 99.0699 275.959 99.4699 277.539 100.52C279.509 101.83 281.159 105.12 281.159 106.76V123.71H281.169Z" fill="#38506C"/>
<path d="M297.81 119.05C297.81 123.98 300.04 124.83 301.23 124.83C302.74 124.83 304.65 124.57 305.57 123.97C305.9 123.78 306.16 123.84 306.36 124.1L306.69 124.7C306.89 124.96 306.75 125.23 306.56 125.42C305.9 126.07 303.21 128.05 299.26 128.05C296.04 128.05 292.88 124.96 292.88 122.46C292.88 119.77 293.08 113.98 293.08 113.06V111.61C293.08 110.43 293.15 105.96 293.21 103.2H289.2C288.61 103.2 288.21 102.94 288.21 102.41C288.21 101.89 288.6 101.69 289.39 101.23C290.97 100.31 296.03 95.25 296.88 93.02C297.08 92.5 297.41 92.36 297.8 92.36C298.32 92.36 298.46 92.82 298.46 93.35L298.13 99.79H307.27C307.66 99.79 307.86 100.12 307.73 100.38L307.07 102.68C307 103.01 306.87 103.2 306.48 103.2H298C297.87 106.23 297.8 109.45 297.8 112.47V119.05H297.81Z" fill="#38506C"/>
<path d="M315.23 109.78C315.1 110.37 315.03 111.42 315.03 112.93C315.03 119.37 319.11 124.24 324.36 124.24C328.37 124.24 331.2 121.94 332.31 119.77C332.44 119.51 332.7 119.37 332.9 119.44L333.75 119.9C333.95 119.96 334.08 120.17 333.75 120.89C332.57 123.52 329.15 128.05 323.3 128.05C319.55 128.05 315.41 126.93 312.98 123.38C310.68 120.02 310.09 117.6 310.09 112.99C310.09 110.43 310.75 106.03 314.23 102.54C317.06 99.65 320.34 99.06 323.63 99.06C331.19 99.06 333.29 106.16 333.29 108.72C333.29 109.64 332.5 109.77 331.45 109.77H315.23V109.78ZM325.68 107.8C326.93 107.8 327.46 107.48 327.46 106.88C327.46 105.37 326.67 101.03 322.4 101.03C319.51 101.03 316.75 102.94 315.5 107.8H325.68Z" fill="#38506C"/>
<path d="M342.049 109.78C342.049 106.43 341.529 105.77 339.679 104.79L338.429 104.13C338.039 104 337.899 103.93 337.899 103.67V103.27C337.899 103.01 338.029 102.88 338.429 102.68L344.939 99.32C345.329 99.12 345.599 99.06 345.859 99.06C346.259 99.06 346.319 99.46 346.319 99.85L346.649 104.52H346.909C348.879 101.5 351.969 98.81 354.799 98.81C357.029 98.81 358.149 100.19 358.149 101.7C358.149 103.61 356.569 104.92 355.389 104.92C354.669 104.92 354.009 104.65 353.479 104.39C352.949 104.06 352.159 103.86 351.309 103.86C350.259 103.86 348.549 104.52 347.429 106.62C347.029 107.34 346.769 108.52 346.769 108.72V122.39C346.769 124.43 347.229 125.08 348.609 125.08H351.699C352.089 125.08 352.159 125.28 352.159 125.67V126.85C352.159 127.24 352.099 127.44 351.829 127.44C351.429 127.44 348.409 127.24 344.859 127.24C340.779 127.24 338.029 127.44 337.629 127.44C337.369 127.44 337.239 127.31 337.239 126.78V125.66C337.239 125.2 337.369 125.07 337.959 125.07H340.519C341.509 125.07 341.969 124.68 341.969 123.82C342.039 121.65 342.039 119.35 342.039 115.93V109.78H342.049Z" fill="#38506C"/>
<path d="M380.7 123.51C377.68 119.89 377.08 117.46 377.08 112.8C377.08 109.45 378.85 105.24 382.73 102.22C386.15 99.59 389.37 99.06 391.54 99.06C395.16 99.06 398.77 100.9 400.74 102.87C403.7 105.89 405.21 109.31 405.21 113.58C405.21 120.74 398.77 128.04 390.68 128.04C387.53 128.05 383.46 126.8 380.7 123.51ZM399.69 112.93C399.69 105.63 394.37 101.03 391.02 101.03C389.24 101.03 387.54 101.43 385.96 103.13C383.4 105.76 382.48 108.46 382.48 113.45C382.48 117.13 382.88 119.63 384.98 122.65C386.49 124.82 388.4 126.07 391.49 126.07C396.47 126.08 399.69 119.96 399.69 112.93Z" fill="#38506C"/>
<path d="M436.959 123.71C436.959 124.76 437.549 125.09 438.409 125.09H440.509C441.099 125.09 441.229 125.29 441.229 125.68V126.73C441.229 127.19 441.099 127.45 440.709 127.45C440.249 127.45 438.209 127.25 434.459 127.25C431.109 127.25 429.009 127.45 428.549 127.45C428.159 127.45 428.019 127.25 428.019 126.73V125.68C428.019 125.22 428.219 125.09 428.869 125.09H430.779C431.499 125.09 432.029 124.77 432.089 123.58C432.159 121.87 432.219 119.77 432.219 118.06V109.39C432.219 106.76 432.219 104.85 430.309 103.47C428.729 102.29 427.159 102.29 425.509 102.29C424.459 102.29 422.159 102.75 420.189 104.85C418.879 106.3 418.679 108.07 418.679 109.32V122.92C418.679 124.7 418.879 125.09 420.259 125.09H421.899C422.429 125.09 422.559 125.29 422.559 125.75V126.87C422.559 127.26 422.429 127.46 422.099 127.46C421.639 127.46 419.869 127.26 416.379 127.26C413.029 127.26 410.929 127.46 410.529 127.46C410.199 127.46 410.069 127.26 410.069 126.87V125.69C410.069 125.3 410.199 125.1 410.729 125.1H412.639C413.489 125.1 413.949 124.9 413.949 123.79V108.4C413.949 106.43 412.899 105.31 411.249 104.52L410.719 104.26C410.259 104.06 410.189 103.87 410.189 103.67V103.34C410.189 103.01 410.449 102.81 410.779 102.68L416.429 99.5299C416.959 99.2699 417.349 99.0699 417.609 99.0699C417.939 99.0699 418.069 99.3299 418.129 99.8599L418.589 103.87H418.719C420.629 101.5 424.439 99.0699 427.719 99.0699C429.689 99.0699 431.729 99.4699 433.309 100.52C435.279 101.83 436.919 105.12 436.919 106.76V123.71H436.959Z" fill="#38506C"/>
<path d="M473.97 109.85C473.97 112.94 474.03 121.88 474.1 122.8C474.23 124.25 474.89 124.9 476.27 124.9H480.48C480.94 124.9 481 125.1 481 125.36V126.94C481 127.27 480.94 127.47 480.41 127.47C479.49 127.47 477.46 127.27 471.28 127.27C465.5 127.27 462.93 127.47 462.21 127.47C461.75 127.47 461.68 127.27 461.68 127.01V125.37C461.68 125.04 461.75 124.91 462.08 124.91H464.9C467.14 124.91 467.6 124.58 467.79 122.81C467.86 122.15 468.05 111.9 468.05 104.28V96.7C468.05 92.36 467.99 85.2 467.92 84.54C467.79 83.23 467.13 83.09 465.36 83.09H461.61C461.28 83.09 461.22 82.96 461.22 82.56V80.98C461.22 80.65 461.28 80.52 461.61 80.52C462.33 80.52 464.7 80.72 470.94 80.72C472.12 80.72 476 80.52 478.17 80.52C485.59 80.52 489.08 81.24 492.83 83.81C495.92 85.91 497.82 89.59 497.82 93.34C497.82 101.62 491.57 106.75 481.13 106.75C478.7 106.75 476.07 106.68 473.97 106.42V109.85ZM473.97 104.06C475.28 104.45 477.46 104.65 480.02 104.65C484.03 104.65 487.58 102.48 489.29 100.19C490.74 98.29 491 95.85 491 93.55C491 84.94 482.98 82.64 479.1 82.64C477.99 82.64 475.29 82.64 473.98 83.1V104.06H473.97Z" fill="#38506C"/>
<path d="M505.459 109.78C505.459 106.43 504.929 105.77 503.099 104.79L501.849 104.13C501.449 104 501.319 103.93 501.319 103.67V103.27C501.319 103.01 501.449 102.88 501.849 102.68L508.359 99.32C508.749 99.12 509.009 99.06 509.279 99.06C509.679 99.06 509.739 99.46 509.739 99.85L510.069 104.52H510.329C512.309 101.5 515.389 98.81 518.219 98.81C520.449 98.81 521.569 100.19 521.569 101.7C521.569 103.61 519.989 104.92 518.809 104.92C518.089 104.92 517.429 104.65 516.899 104.39C516.369 104.06 515.589 103.86 514.729 103.86C513.679 103.86 511.969 104.52 510.849 106.62C510.459 107.34 510.189 108.52 510.189 108.72V122.39C510.189 124.43 510.649 125.08 512.029 125.08H515.119C515.509 125.08 515.579 125.28 515.579 125.67V126.85C515.579 127.24 515.509 127.44 515.249 127.44C514.859 127.44 511.829 127.24 508.279 127.24C504.209 127.24 501.449 127.44 501.049 127.44C500.789 127.44 500.659 127.31 500.659 126.78V125.66C500.659 125.2 500.789 125.07 501.379 125.07H503.939C504.919 125.07 505.379 124.68 505.379 123.82C505.449 121.65 505.449 119.35 505.449 115.93V109.78H505.459Z" fill="#38506C"/>
<path d="M528.199 108.14C528.199 105.9 527.809 104.72 524.519 104.19C524.059 104.13 523.929 104 523.929 103.73V103.14C523.929 102.94 524.059 102.81 524.389 102.68C526.489 101.89 528.989 100.84 531.489 99.46C532.009 99.19 532.339 99.06 532.729 99.06C533.059 99.06 533.129 99.39 533.059 99.85C532.929 100.97 532.929 105.11 532.929 110.57V117.73C532.929 120.29 532.929 122.66 532.989 123.38C533.119 124.63 533.319 125.09 534.039 125.09H537.059C537.589 125.09 537.719 125.29 537.719 125.68V126.8C537.719 127.26 537.589 127.46 537.129 127.46C536.599 127.46 533.579 127.26 530.819 127.26C527.009 127.26 524.439 127.46 523.719 127.46C523.389 127.46 523.199 127.33 523.199 126.93V125.62C523.199 125.23 523.399 125.09 523.849 125.09H527.069C527.789 125.09 528.049 124.83 528.119 123.78C528.179 121.81 528.179 119.77 528.179 117.8V108.14H528.199ZM525.119 87.96C525.119 86.25 526.569 84.28 529.259 84.28C531.689 84.28 532.809 86.25 532.809 87.76C532.809 89.53 531.629 91.64 528.869 91.64C527.349 91.64 525.119 90.13 525.119 87.96Z" fill="#38506C"/>
<path d="M554.23 121.21H554.43C555.48 118.65 560.08 107.34 560.74 104.78C561.2 103 560.74 101.95 559.55 101.95H558.24C558.04 101.95 557.98 101.62 557.98 101.29V100.11C557.98 99.72 558.11 99.58 558.37 99.58C559.29 99.58 560.74 99.78 563.63 99.78C566.19 99.78 567.77 99.58 568.36 99.58C568.89 99.58 568.95 99.65 568.95 100.17V101.28C568.95 101.74 568.95 101.94 568.62 101.94H567.37C566.58 101.94 565.93 102.07 565.33 102.67C564.34 103.59 561.06 110.82 560.07 113.25C559.28 115.22 554.42 126.26 554.15 126.72C553.63 127.64 553.29 128.23 552.57 128.23C551.91 128.23 551.52 127.64 551.19 126.85C551.06 126.52 546.26 114.03 546.06 113.51C545.86 112.98 543.17 105.43 542.71 104.38C541.85 102.47 541.2 101.95 540.02 101.95H538.71C538.38 101.95 538.31 101.69 538.31 101.29V100.11C538.31 99.65 538.44 99.58 539.03 99.58C539.75 99.58 540.87 99.78 544.55 99.78C548.03 99.78 549.74 99.58 550.47 99.58C551 99.58 551.13 99.71 551.13 100.11V101.29C551.13 101.69 551.07 101.95 550.67 101.95H549.36C548.7 101.95 548.18 102.35 548.18 103.2C548.18 104.39 549.89 109.91 550.28 111.03C550.68 112.27 553.51 119.83 554.23 121.21Z" fill="#38506C"/>
<path d="M588.48 119.44C588.48 123.18 589.27 124.37 590.45 124.37C591.5 124.37 592.42 123.84 592.75 123.39C593.01 123.06 593.14 122.93 593.4 123.13L594.06 123.65C594.26 123.85 594.39 124.18 593.99 124.83C593.47 125.81 592.22 128.05 588.87 128.05C586.5 128.05 584.79 126.34 584.2 123.64H584.07C582.69 125.28 580.52 126.67 577.56 127.65C576.31 128.05 575.12 128.05 573.68 128.05C572.1 128.05 569.74 126.74 569.74 122.59C569.74 119.56 571.12 116.94 576.31 114.64C579.27 113.32 582.69 111.75 583.74 110.83V106.62C583.61 105.5 583.54 103.79 582.82 102.94C582.1 102.08 580.78 101.49 578.88 101.49C577.57 101.49 575.53 102.01 574.61 102.87C573.69 103.72 574.28 104.71 574.28 105.89C574.28 108.19 573.49 109.64 570.8 109.64C569.75 109.64 569.22 109.05 569.22 107.54C569.22 105.44 571.06 102.94 573.76 101.37C576.52 99.7299 578.82 99.0699 581.78 99.0699C584.86 99.0699 586.11 99.9899 587.04 100.85C588.42 102.23 588.49 103.74 588.49 105.52V115.57V119.44H588.48ZM583.68 112.8C581.32 114.57 574.87 115.89 574.87 121.34C574.87 123.77 576.32 124.96 578.29 124.96C580.2 124.96 583.68 122.66 583.68 120.89V112.8Z" fill="#38506C"/>
<path d="M601.69 111.35C601.69 114.9 603.27 118.91 605.04 121.34C607.21 124.17 609.97 124.69 612.2 124.69C615.49 124.69 617.19 123.96 619.43 121.86C619.56 121.73 619.76 121.66 619.96 121.86L620.61 122.52C620.88 122.78 620.94 122.98 620.61 123.38C618.71 125.55 614.5 128.05 610.03 128.05C606.55 128.05 602.87 127.26 599.84 123.45C597.41 120.23 596.88 117.47 596.88 114.51C596.88 106.82 602.27 99.0699 610.95 99.0699C617.78 99.0699 619.89 103.01 619.89 104.39C619.83 105.9 618.84 106.69 617.46 106.69C615.95 106.69 614.83 105.84 613.84 104.06C612.39 101.36 611.01 101.17 609.43 101.17C605.7 101.17 601.69 104.58 601.69 111.35Z" fill="#38506C"/>
<path d="M621.409 141.79C621.409 140.41 622.859 139.23 624.429 139.23C625.679 139.23 626.859 139.82 627.459 139.95C627.919 140.02 628.439 139.95 628.839 139.56C629.819 138.38 633.179 130.88 634.099 128.32C633.769 126.68 626.809 106.1 626.279 104.72C625.489 103.08 624.899 101.96 623.189 101.96H621.479C621.019 101.96 620.949 101.76 620.949 101.37V100.06C620.949 99.79 621.019 99.6 621.479 99.6C622.069 99.6 623.649 99.8 627.529 99.8C630.879 99.8 632.919 99.6 633.639 99.6C634.169 99.6 634.229 99.8 634.229 100.06V101.44C634.229 101.76 634.169 101.96 633.839 101.96H632.589C631.869 101.96 631.599 102.42 631.729 103.41C631.929 104.86 636.399 119.38 637.119 120.83H637.379C638.029 119.78 643.759 106.11 644.149 104.46C644.539 102.82 644.019 101.96 643.039 101.96H641.989C641.599 101.96 641.529 101.76 641.529 101.44V100.12C641.529 99.79 641.599 99.59 641.929 99.59C642.779 99.59 644.159 99.79 647.319 99.79C649.099 99.79 650.609 99.59 651.329 99.59C651.719 99.59 651.719 99.85 651.719 100.12V101.37C651.719 101.76 651.719 101.96 651.389 101.96H650.339C649.619 101.96 648.699 102.29 648.039 103.14C646.599 104.92 642.259 114.97 637.719 125.29C634.499 132.59 631.939 138.7 630.759 140.87C629.839 142.58 628.649 145.14 625.169 145.14C622.659 145.14 621.409 143.76 621.409 141.79Z" fill="#38506C"/>
<path d="M699.369 117.8C696.149 121.74 691.409 128.25 682.999 128.25C676.689 128.25 669.199 124.24 669.199 116.68C669.199 111.95 671.899 108.07 674.529 105.57C676.759 103.4 679.459 101.69 682.149 100.18C677.609 97.55 675.309 94.33 675.309 91.96C675.309 86.77 682.079 80.72 685.959 80.72C690.889 80.72 695.289 85.46 695.159 89.86C695.029 93.28 690.759 97.48 687.929 98.93C692.529 101.36 698.449 106.95 701.799 111.75C703.899 109.12 708.109 102.94 708.309 101.03C708.439 99.98 707.649 98.99 706.269 98.99H705.149C704.749 98.99 704.689 98.79 704.689 98.53V97.08C704.689 96.88 704.749 96.75 705.149 96.75C705.739 96.75 709.289 96.95 711.529 96.95C713.959 96.95 717.899 96.75 718.299 96.75C718.699 96.75 718.759 96.95 718.759 97.21V98.59C718.759 98.85 718.699 99.05 718.299 99.05H717.179C713.889 99.05 713.239 99.31 712.189 100.96C711.729 101.68 704.889 111.67 703.119 113.51C704.109 114.63 707.199 118.18 708.119 119.03C709.759 120.73 712.789 123.96 716.989 123.96C720.999 123.96 723.959 119.36 724.219 118.83C724.349 118.63 724.479 118.57 724.739 118.77L725.729 119.36C725.859 119.43 725.859 119.63 725.729 119.95C724.739 122.12 721.129 128.23 713.509 128.23C706.399 128.25 702.189 121.41 699.369 117.8ZM697.919 116.29C694.889 112.02 689.639 105.05 683.459 101.57C678.659 104.2 674.459 109.06 674.579 114.45C674.709 119.91 680.429 124.31 685.489 124.31C691.939 124.3 696.219 118.26 697.919 116.29ZM679.849 90.72C679.849 93.15 683.459 96.04 686.549 97.95C688.189 96.7 691.289 94.73 691.289 89.67C691.289 87.44 689.249 83.1 685.959 83.1C682.739 83.09 679.849 86.91 679.849 90.72Z" fill="#38506C"/>
<path d="M753.73 83.09H752.09C749.99 83.09 744.27 83.09 741.71 83.88C738.75 84.8 736.78 89.4 735.86 91.5C735.73 91.83 735.53 91.89 735.2 91.83L734.02 91.5C733.82 91.43 733.62 91.37 733.76 90.97C734.41 88.6 736.72 80.13 736.85 79.4C736.98 78.55 737.25 78.35 737.51 78.35C737.84 78.35 738.03 78.41 738.3 78.61L739.15 79.2C740.33 80.05 740.99 80.25 742.9 80.32C746.38 80.45 749.14 80.71 755.32 80.71H758.47C765.64 80.71 768.46 80.45 771.68 80.32C773.13 80.26 773.98 80.06 775.1 79.4L776.35 78.61C776.68 78.41 776.88 78.35 777.14 78.35C777.47 78.35 777.6 78.55 777.73 79.4C777.86 80.19 779.11 88.34 779.64 91.23C779.71 91.56 779.58 91.69 779.25 91.76L778.2 92.02C777.94 92.08 777.87 92.02 777.68 91.56C777.15 90.31 775.18 85.25 773.01 84.2C771.04 83.21 764.86 83.08 761.64 83.08H759.8V101.81C759.8 102.73 759.8 121.14 759.87 122.25C760 123.89 760.53 124.88 762.1 124.88H766.24C766.83 124.88 766.9 125.08 766.9 125.54V126.92C766.9 127.25 766.83 127.45 766.24 127.45C765.58 127.45 763.48 127.25 757.03 127.25C750.73 127.25 747.96 127.45 747.04 127.45C746.52 127.45 746.45 127.18 746.45 126.79V125.54C746.45 125.08 746.52 124.88 746.91 124.88H751.38C752.69 124.88 753.48 124.09 753.55 123.31C753.75 121.4 753.75 101.22 753.75 99.98V83.09H753.73Z" fill="#38506C"/>
<path d="M784.37 109.78C784.24 110.37 784.17 111.42 784.17 112.93C784.17 119.37 788.24 124.24 793.5 124.24C797.51 124.24 800.34 121.94 801.46 119.77C801.59 119.51 801.85 119.37 802.05 119.44L802.91 119.9C803.11 119.96 803.24 120.17 802.91 120.89C801.73 123.52 798.31 128.05 792.46 128.05C788.71 128.05 784.57 126.93 782.14 123.38C779.84 120.02 779.25 117.6 779.25 112.99C779.25 110.43 779.91 106.03 783.39 102.54C786.22 99.65 789.5 99.06 792.79 99.06C800.35 99.06 802.45 106.16 802.45 108.72C802.45 109.64 801.66 109.77 800.61 109.77H784.37V109.78ZM794.82 107.8C796.07 107.8 796.6 107.48 796.6 106.88C796.6 105.37 795.81 101.03 791.54 101.03C788.65 101.03 785.89 102.94 784.64 107.8H794.82Z" fill="#38506C"/>
<path d="M812.039 111.35C812.039 114.9 813.62 118.91 815.39 121.34C817.56 124.17 820.319 124.69 822.549 124.69C825.84 124.69 827.55 123.96 829.78 121.86C829.91 121.73 830.099 121.66 830.299 121.86L830.96 122.52C831.22 122.78 831.29 122.98 830.96 123.38C829.05 125.55 824.85 128.05 820.38 128.05C816.9 128.05 813.22 127.26 810.19 123.45C807.76 120.23 807.229 117.47 807.229 114.51C807.229 106.82 812.619 99.0699 821.289 99.0699C828.129 99.0699 830.229 103.01 830.229 104.39C830.169 105.9 829.179 106.69 827.799 106.69C826.289 106.69 825.17 105.84 824.18 104.06C822.73 101.36 821.35 101.17 819.77 101.17C816.05 101.17 812.039 104.58 812.039 111.35Z" fill="#38506C"/>
<path d="M838.269 91.44C838.269 87.43 837.479 86.71 835.119 85.92L833.999 85.53C833.609 85.4 833.539 85.33 833.539 85.13V84.54C833.539 84.28 833.739 84.21 834.329 83.88L841.159 80.27C841.689 80.01 842.149 79.74 842.679 79.74C843.069 79.74 843.329 80.27 843.199 81.38C843.069 82.5 842.999 95.84 842.999 99.12V103.33H843.329C845.629 100.57 849.439 99.06 852.329 99.06C855.089 99.06 856.999 99.92 858.839 101.69C861.799 104.45 861.669 107.8 861.669 111.35V115.1C861.669 118.78 861.799 122.86 861.799 124.1C861.799 124.89 862.849 125.09 864.229 125.09H865.349C865.879 125.09 866.069 125.22 866.069 125.68V126.67C866.069 127.19 865.939 127.46 865.539 127.46C865.079 127.46 862.979 127.26 859.229 127.26C856.009 127.26 853.639 127.46 853.049 127.46C852.589 127.46 852.459 127.26 852.459 126.74V125.62C852.459 125.29 852.519 125.09 852.919 125.09H854.439C855.559 125.09 856.869 124.96 856.939 123.84C857.009 122.92 856.939 119.44 856.939 117.33V112.01C856.939 108.33 856.669 105.7 854.769 103.92C853.459 102.68 852.079 102.08 850.429 102.08C848.529 102.08 846.159 102.74 844.319 104.84C843.729 105.56 843.009 106.88 843.009 108.06V122.39C843.009 124.49 843.209 125.08 844.459 125.08H846.439C846.899 125.08 847.159 125.21 847.159 125.61V126.73C847.159 127.19 847.029 127.45 846.629 127.45C846.099 127.45 843.409 127.25 840.389 127.25C837.099 127.25 834.609 127.45 834.009 127.45C833.749 127.45 833.549 127.25 833.549 126.79V125.61C833.549 125.15 833.819 125.08 834.539 125.08H835.919C836.969 125.08 837.959 124.82 838.089 124.03C838.289 122.78 838.289 115.55 838.289 111.28V91.44H838.269Z" fill="#38506C"/>
<path d="M896.7 123.71C896.7 124.76 897.29 125.09 898.15 125.09H900.25C900.84 125.09 900.97 125.29 900.97 125.68V126.73C900.97 127.19 900.84 127.45 900.44 127.45C899.98 127.45 897.94 127.25 894.2 127.25C890.85 127.25 888.74 127.45 888.28 127.45C887.89 127.45 887.76 127.25 887.76 126.73V125.68C887.76 125.22 887.96 125.09 888.61 125.09H890.52C891.24 125.09 891.77 124.77 891.83 123.58C891.9 121.87 891.96 119.77 891.96 118.06V109.39C891.96 106.76 891.96 104.85 890.05 103.47C888.47 102.29 886.89 102.29 885.25 102.29C884.2 102.29 881.9 102.75 879.92 104.85C878.61 106.3 878.41 108.07 878.41 109.32V122.92C878.41 124.7 878.61 125.09 879.99 125.09H881.63C882.16 125.09 882.29 125.29 882.29 125.75V126.87C882.29 127.26 882.16 127.46 881.83 127.46C881.37 127.46 879.6 127.26 876.11 127.26C872.76 127.26 870.65 127.46 870.26 127.46C869.93 127.46 869.8 127.26 869.8 126.87V125.69C869.8 125.3 869.93 125.1 870.46 125.1H872.36C873.21 125.1 873.67 124.9 873.67 123.79V108.4C873.67 106.43 872.62 105.31 870.98 104.52L870.45 104.26C869.99 104.06 869.92 103.87 869.92 103.67V103.34C869.92 103.01 870.18 102.81 870.51 102.68L876.16 99.5299C876.68 99.2699 877.08 99.0699 877.34 99.0699C877.67 99.0699 877.8 99.3299 877.87 99.8599L878.33 103.87H878.46C880.37 101.5 884.18 99.0699 887.47 99.0699C889.44 99.0699 891.48 99.4699 893.06 100.52C895.03 101.83 896.67 105.12 896.67 106.76V123.71H896.7Z" fill="#38506C"/>
<path d="M908.139 123.51C905.119 119.89 904.529 117.46 904.529 112.8C904.529 109.45 906.299 105.24 910.179 102.22C913.589 99.59 916.819 99.06 918.989 99.06C922.599 99.06 926.219 100.9 928.189 102.87C931.149 105.89 932.659 109.31 932.659 113.58C932.659 120.74 926.219 128.04 918.139 128.04C914.979 128.05 910.899 126.8 908.139 123.51ZM927.139 112.93C927.139 105.63 921.809 101.03 918.459 101.03C916.689 101.03 914.979 101.43 913.399 103.13C910.839 105.76 909.919 108.46 909.919 113.45C909.919 117.13 910.319 119.63 912.419 122.65C913.929 124.82 915.839 126.07 918.929 126.07C923.919 126.08 927.139 119.96 927.139 112.93Z" fill="#38506C"/>
<path d="M946 107.67C946 111.09 946 121.01 946.07 123.05C946.13 124.17 946.4 125.09 947.78 125.09H950.74C951.33 125.09 951.46 125.29 951.46 125.68V126.8C951.46 127.19 951.33 127.46 951.07 127.46C950.61 127.46 947.72 127.26 943.64 127.26C939.43 127.26 936.81 127.46 936.21 127.46C935.88 127.46 935.75 127.19 935.75 126.8V125.68C935.75 125.22 935.88 125.09 936.6 125.09H939.76C940.49 125.09 941.14 124.63 941.21 123.45C941.28 121.41 941.28 110.11 941.28 106.3V102.16C941.28 97.49 941.21 91.51 941.08 89.8C940.95 87.57 939.89 86.51 937.79 85.86L936.48 85.4C936.15 85.27 936.09 85.2 936.09 85.07V84.55C936.09 84.35 936.29 84.22 936.68 84.09C938.98 83.04 941.94 81.85 944.37 80.28C944.96 79.88 945.36 79.75 945.75 79.75C946.21 79.75 946.34 80.08 946.28 80.93C946.21 84.55 946.02 98.22 946.02 101.83V107.67H946Z" fill="#38506C"/>
<path d="M957.71 123.51C954.69 119.89 954.1 117.46 954.1 112.8C954.1 109.45 955.87 105.24 959.75 102.22C963.17 99.59 966.39 99.06 968.56 99.06C972.17 99.06 975.79 100.9 977.76 102.87C980.72 105.89 982.23 109.31 982.23 113.58C982.23 120.74 975.79 128.04 967.71 128.04C964.54 128.05 960.47 126.8 957.71 123.51ZM976.7 112.93C976.7 105.63 971.37 101.03 968.02 101.03C966.24 101.03 964.54 101.43 962.96 103.13C960.4 105.76 959.48 108.46 959.48 113.45C959.48 117.13 959.88 119.63 961.98 122.65C963.49 124.82 965.4 126.07 968.49 126.07C973.48 126.08 976.7 119.96 976.7 112.93Z" fill="#38506C"/>
<path d="M988.799 143.04C986.429 141.6 985.449 139.89 985.449 137.72C985.449 134.04 989.199 131.21 992.349 129.83V129.57C989.589 128.97 987.949 126.94 987.949 124.97C987.949 121.81 991.559 119.58 993.859 118.72V118.59C991.299 117.47 987.749 114.45 987.749 108.6C987.749 104.33 991.559 99.0699 998.989 99.0699C1003.99 99.0699 1006.61 102.09 1007.27 102.88C1009.04 101.63 1011.28 100.31 1013.45 100.31C1015.62 100.31 1016.67 101.76 1016.54 103.07C1016.54 104.32 1015.49 105.5 1013.98 105.5C1012.86 105.5 1012.21 104.97 1011.68 104.51C1011.28 104.25 1010.83 103.92 1010.3 103.92C1009.84 103.92 1009.05 103.92 1008.2 104.32C1008.72 105.63 1009.18 107.08 1009.18 109.32C1009.18 111.88 1008.46 114.38 1006.75 116.42C1005.04 118.33 1001.3 119.71 999.129 119.71C997.679 119.71 996.759 119.64 995.769 119.38C994.459 119.91 992.289 121.22 992.289 123.06C992.289 125.76 995.579 125.56 999.979 125.29C1005.37 125.03 1008.66 125.62 1011.28 127.66C1014.11 129.76 1014.44 132.39 1014.5 133.97C1014.5 137.06 1013.38 139.63 1010.09 142.06C1008.38 143.31 1004.44 145.15 998.849 145.15C995.699 145.14 991.949 144.81 988.799 143.04ZM1010.49 136.26C1010.49 132.38 1007.53 129.42 1000.96 129.88L994.649 130.34C992.609 130.87 989.389 133.1 989.389 136.65C989.389 138.29 990.629 140.27 991.949 141.18C994.119 142.69 996.479 143.02 1001.15 143.02C1003.59 143.04 1010.82 141.33 1010.49 136.26ZM1004.38 108.26C1004.38 105.37 1003.79 103.66 1002.6 102.35C1001.74 101.5 1000.43 100.9 999.439 100.9C997.929 100.9 996.349 101.16 994.769 102.74C992.659 104.97 992.399 108 992.399 110.5C992.399 112.73 993.119 114.77 994.499 116.22C995.679 117.34 996.869 117.86 998.449 117.86C1002.93 117.86 1004.38 112.41 1004.38 108.26Z" fill="#38506C"/>
<path d="M1016.34 141.79C1016.34 140.41 1017.79 139.23 1019.36 139.23C1020.61 139.23 1021.79 139.82 1022.39 139.95C1022.85 140.02 1023.37 139.95 1023.77 139.56C1024.76 138.38 1028.11 130.88 1029.03 128.32C1028.7 126.68 1021.74 106.1 1021.21 104.72C1020.42 103.08 1019.83 101.96 1018.12 101.96H1016.41C1015.95 101.96 1015.88 101.76 1015.88 101.37V100.06C1015.88 99.79 1015.95 99.6 1016.41 99.6C1017 99.6 1018.58 99.8 1022.46 99.8C1025.81 99.8 1027.85 99.6 1028.57 99.6C1029.1 99.6 1029.16 99.8 1029.16 100.06V101.44C1029.16 101.76 1029.1 101.96 1028.77 101.96H1027.52C1026.8 101.96 1026.53 102.42 1026.66 103.41C1026.86 104.86 1031.33 119.38 1032.05 120.83H1032.31C1032.96 119.78 1038.69 106.11 1039.08 104.46C1039.47 102.82 1038.95 101.96 1037.96 101.96H1036.91C1036.52 101.96 1036.45 101.76 1036.45 101.44V100.12C1036.45 99.79 1036.52 99.59 1036.85 99.59C1037.7 99.59 1039.08 99.79 1042.24 99.79C1044.01 99.79 1045.53 99.59 1046.25 99.59C1046.64 99.59 1046.64 99.85 1046.64 100.12V101.37C1046.64 101.76 1046.64 101.96 1046.31 101.96H1045.26C1044.54 101.96 1043.62 102.29 1042.96 103.14C1041.52 104.92 1037.18 114.97 1032.64 125.29C1029.42 132.59 1026.86 138.7 1025.67 140.87C1024.75 142.58 1023.56 145.14 1020.08 145.14C1017.59 145.14 1016.34 143.76 1016.34 141.79Z" fill="#38506C"/>
<path d="M708.55 33.08C708.69 33.52 709 33.78 709.43 33.78C709.95 33.78 710.38 33.39 710.56 32.96C710.74 32.48 718.43 11.17 718.82 9.94999H719L726.87 32.83C727.04 33.35 727.35 33.79 727.96 33.79C728.56 33.79 728.91 33.09 729.08 32.66C729.95 30.48 738.83 6.13999 739.26 5.17999C739.7 4.17999 740.48 3.74999 741.17 3.74999H742.1C742.36 3.74999 742.4 3.61999 742.4 3.39999V2.19999C742.4 2.06999 742.31 1.98999 742.14 1.98999C741.79 1.98999 740.49 2.11999 738.05 2.11999C735.36 2.11999 733.88 1.98999 733.44 1.98999C733.18 1.98999 733.1 2.11999 733.1 2.32999V3.37999C733.1 3.59999 733.14 3.72999 733.4 3.72999H734.57C735.61 3.72999 736.05 4.33999 736.05 4.94999C736.05 7.33999 731.09 21.69 729.79 25.51H729.62L723.35 5.41999C723.13 4.67999 723.44 3.71999 724.31 3.71999H725.82C726.04 3.71999 726.13 3.58999 726.13 3.36999V2.36999C726.13 2.10999 726.08 1.97999 725.82 1.97999C725.44 1.97999 723.78 2.10999 720.13 2.10999C716.39 2.10999 714.82 1.97999 714.47 1.97999C714.21 1.97999 714.12 2.10999 714.12 2.31999V3.40999C714.12 3.62999 714.25 3.70999 714.43 3.70999H715.35C715.87 3.70999 716.48 3.96999 716.82 4.48999C717.26 5.05999 717.61 6.00999 717.61 6.79999C717.52 8.44999 711.73 24.45 711.39 25.37L711.31 25.33L704.91 5.23999C704.61 4.32999 705.08 3.71999 705.96 3.71999H706.78C707.09 3.71999 707.18 3.58999 707.18 3.36999V2.28999C707.18 2.07999 707.09 1.98999 706.83 1.98999C706.39 1.98999 704.56 2.11999 701.43 2.11999C697.52 2.11999 696.22 1.98999 695.87 1.98999C695.65 1.98999 695.52 2.06999 695.52 2.28999V3.41999C695.52 3.59999 695.6 3.71999 695.78 3.71999H697C697.7 3.71999 698.38 4.06999 698.82 5.28999L708.55 33.08ZM669.34 19.21C669.64 18.21 673.55 7.51999 673.73 6.94999C673.86 6.55999 674.03 6.37999 674.3 6.37999C674.47 6.37999 674.56 6.63999 674.72 7.16999C674.99 8.03999 677.94 17.95 678.37 19.21H669.34ZM678.82 20.95C679.34 22.56 681.08 28.12 681.42 29.69C681.69 30.87 681.34 31.3 680.12 31.3H679C678.74 31.3 678.65 31.39 678.65 31.65V32.52C678.65 32.78 678.74 33.04 679.09 33.04C680.04 33.04 681.53 32.91 685.18 32.91C689.96 32.91 690.83 33.04 691.62 33.04C691.96 33.04 692.06 32.78 692.06 32.52V31.6C692.06 31.38 691.97 31.3 691.7 31.3H690.31C689.44 31.3 688.31 30.78 687.54 29.3C686.92 28.13 684.14 20.04 683.1 16.65C682.31 13.87 678.92 4.12999 678.13 1.42999C678.05 1.16999 677.87 0.649988 677.61 0.649988C677.38 0.649988 677.21 0.819988 676.96 1.07999C676.44 1.59999 674.04 2.90999 672.65 3.24999C672.31 3.33999 672.22 3.50999 672.22 3.68999C672.22 3.81999 672.35 4.07999 672.48 4.20999C672.74 4.46999 672.48 5.24999 672.39 5.68999C671.96 6.81999 668.44 16.22 668.13 17.09C666.83 20.74 663.7 28.57 663.26 29.35C662.47 30.7 661.7 31.31 660.48 31.31H659.18C659 31.31 658.92 31.4 658.92 31.66V32.49C658.92 32.79 658.92 33.05 659.18 33.05C659.78 33.05 660.74 32.92 663.96 32.92C667.01 32.92 668.83 33.05 669.43 33.05C669.7 33.05 669.79 32.87 669.79 32.61V31.52C669.79 31.39 669.7 31.3 669.35 31.3H667.53C666.65 31.3 665.96 30.82 665.96 30.26C665.96 30.04 665.96 29.69 666.05 29.34C666.27 28.17 668.39 21.95 668.75 20.95H678.82ZM650.07 23.69C649.8 23.6 649.73 23.69 649.54 23.86C648.93 25.51 646.15 30.73 643.72 31.08C641.97 31.3 638.85 31.3 636.41 31.3H633.98C633.81 29.43 633.81 20.04 633.81 19.26V15.52C633.81 12.48 633.98 5.94999 633.98 5.34999C633.98 4.17999 634.16 3.73999 635.46 3.73999H637.81C638.15 3.73999 638.24 3.56999 638.24 3.38999V2.38999C638.24 2.16999 638.15 1.99999 637.81 1.99999C637.46 1.99999 635.63 2.12999 630.94 2.12999C626.94 2.12999 625.38 1.99999 624.94 1.99999C624.68 1.99999 624.59 2.07999 624.59 2.33999V3.33999C624.59 3.46999 624.68 3.72999 624.94 3.72999H626.77C627.9 3.72999 628.07 4.16999 628.16 5.29999C628.24 6.03999 628.33 10.65 628.33 13.43V15.87C628.33 18.48 628.16 29.35 628.16 30.13C628.16 30.69 627.9 31.3 626.33 31.3H624.59C624.32 31.3 624.32 31.39 624.32 31.65V32.65C624.32 32.96 624.32 33.04 624.68 33.04C625.2 33.04 626.77 32.91 630.68 32.91C635.12 32.91 647.64 32.99 648.78 33.04C649.04 31.87 650.77 24.65 650.95 24.38C650.95 24.12 650.95 24.04 650.87 23.95L650.07 23.69ZM569.98 7.94999H570.24C570.76 8.55999 577.72 17.26 578.33 17.86C578.85 18.56 582.24 22.64 585.28 26.38C587.99 29.6 590.33 32.3 590.68 32.73C591.03 33.08 591.55 33.42 592.16 33.42C592.68 33.42 592.68 32.81 592.68 32.2V20.73C592.68 16.3 593.12 8.98999 593.33 6.03999C593.46 4.42999 593.9 3.73999 594.77 3.73999H595.98C596.16 3.73999 596.24 3.56999 596.24 3.30999V2.30999C596.24 2.17999 596.16 2.00999 595.82 2.00999C595.29 2.00999 594.25 2.13999 591.64 2.13999C588.68 2.13999 587.3 2.00999 586.77 2.00999C586.41 2.00999 586.41 2.08999 586.41 2.34999V3.34999C586.41 3.56999 586.41 3.73999 586.67 3.73999H588.06C589.1 3.73999 590.06 4.34999 590.37 5.38999C590.58 6.12999 590.76 10.39 590.84 12.04C590.92 14.21 590.92 16.39 590.92 20.22V24.74H590.76C590.06 23.87 583.28 15.43 582.67 14.74C581.8 13.52 573.28 2.81999 572.84 2.38999C572.58 2.12999 572.32 1.99999 571.8 1.99999C571.54 1.99999 571.15 2.03999 570.59 2.03999C570.07 2.07999 569.41 2.12999 568.67 2.12999C566.77 2.12999 565.59 2.12999 564.8 2.08999C564.01 2.04999 563.67 2.00999 563.45 2.00999C563.27 2.00999 563.18 2.08999 563.18 2.26999V3.43999C563.18 3.61999 563.27 3.69999 563.45 3.73999H564.84C566.76 3.73999 568.23 5.73999 568.23 8.34999V13.87C568.23 20.83 567.97 26.92 567.93 27.69C567.71 30.34 567.11 31.3 565.97 31.3H564.49C564.31 31.3 564.23 31.47 564.23 31.56V32.64C564.23 32.95 564.31 33.03 564.49 33.03C564.93 33.03 567.88 32.9 569.01 32.9C570.66 32.9 573.27 33.03 573.71 33.03C574.06 33.03 574.06 32.95 574.06 32.68V31.68C574.06 31.46 574.06 31.29 573.71 31.29H572.58C571.01 31.29 570.5 30.25 570.4 28.07C570.31 26.72 569.97 20.63 569.97 13.24V7.94999H569.98ZM521.2 33.08C521.34 33.52 521.63 33.78 522.07 33.78C522.59 33.78 523.03 33.39 523.2 32.96C523.37 32.48 531.07 11.17 531.46 9.94999H531.63L539.5 32.83C539.68 33.35 539.98 33.79 540.59 33.79C541.2 33.79 541.54 33.09 541.72 32.66C542.59 30.48 551.46 6.13999 551.89 5.17999C552.33 4.17999 553.11 3.74999 553.8 3.74999H554.71C554.97 3.74999 555.01 3.61999 555.01 3.39999V2.19999C555.01 2.06999 554.92 1.98999 554.75 1.98999C554.4 1.98999 553.1 2.11999 550.66 2.11999C547.97 2.11999 546.49 1.98999 546.05 1.98999C545.79 1.98999 545.7 2.11999 545.7 2.32999V3.37999C545.7 3.59999 545.75 3.72999 546.01 3.72999H547.18C548.22 3.72999 548.66 4.33999 548.66 4.94999C548.66 7.33999 543.7 21.69 542.4 25.51H542.22L535.96 5.41999C535.74 4.67999 536.05 3.71999 536.92 3.71999H538.45C538.66 3.71999 538.75 3.58999 538.75 3.36999V2.36999C538.75 2.10999 538.71 1.97999 538.45 1.97999C538.06 1.97999 536.4 2.10999 532.75 2.10999C529.01 2.10999 527.44 1.97999 527.1 1.97999C526.84 1.97999 526.75 2.10999 526.75 2.31999V3.40999C526.75 3.62999 526.88 3.70999 527.05 3.70999H527.96C528.48 3.70999 529.09 3.96999 529.44 4.48999C529.87 5.05999 530.22 6.00999 530.22 6.79999C530.13 8.44999 524.34 24.45 524 25.37L523.91 25.33L517.52 5.23999C517.22 4.32999 517.69 3.71999 518.56 3.71999H519.39C519.69 3.71999 519.78 3.58999 519.78 3.36999V2.28999C519.78 2.07999 519.69 1.98999 519.43 1.98999C518.99 1.98999 517.17 2.11999 514.04 2.11999C510.12 2.11999 508.82 1.98999 508.48 1.98999C508.26 1.98999 508.14 2.06999 508.14 2.28999V3.41999C508.14 3.59999 508.22 3.71999 508.4 3.71999H509.62C510.32 3.71999 511.01 4.06999 511.45 5.28999L521.2 33.08ZM482.93 3.37999C487.11 3.37999 493.55 8.76999 493.55 18.25C493.55 21.9 492.15 31.64 483.37 31.64C479.72 31.64 472.77 27.64 472.77 16.33C472.77 12.85 474.03 8.36999 476.68 5.80999C479.63 2.94999 482.15 3.37999 482.93 3.37999ZM483.11 1.46999C479.37 1.46999 474.68 2.33999 470.85 7.03999C467.59 11.08 466.85 15.21 466.85 17.82C466.85 24.08 470.11 28.82 473.19 30.69C476.67 32.78 480.41 33.56 483.02 33.56C489.54 33.56 493.28 30.87 496.06 27.39C498.4 24.43 499.28 21.04 499.28 17.82C499.28 11.91 496.63 7.59999 493.36 4.94999C489.8 2.07999 486.33 1.46999 483.11 1.46999ZM438.24 14.82C438.24 15.69 438.24 28.99 438.11 30.13C438.06 30.78 437.54 31.3 436.68 31.3H434.2C434.03 31.3 433.9 31.39 433.9 31.65V32.65C433.9 32.96 433.99 33.04 434.25 33.04C434.86 33.04 436.69 32.91 441.12 32.91C445.82 32.91 447.21 33.04 447.64 33.04C447.99 33.04 448.08 32.86 448.08 32.6V31.69C448.08 31.47 447.99 31.3 447.82 31.3H445.3C444.26 31.3 443.82 30.43 443.82 27.13V3.94999H445.03C446.6 3.94999 450.51 4.03999 451.73 4.72999C452.95 5.59999 454.56 8.37999 455.16 9.59999C455.29 9.85999 455.38 9.98999 455.55 9.93999L456.42 9.63999C456.55 9.59999 456.64 9.50999 456.59 9.24999C456.24 7.15999 455.37 1.76999 455.29 0.989988C455.2 0.469988 455.12 0.299988 454.86 0.299988C454.6 0.299988 454.42 0.469988 454.08 0.729988C453.43 1.20999 451.77 1.80999 450.95 1.85999C448.95 1.94999 447.12 2.11999 442.34 2.11999H439.99C435.73 2.11999 433.9 1.94999 431.56 1.85999C430.34 1.80999 429.47 1.59999 428.6 0.729988C428.34 0.469988 428.16 0.299988 427.9 0.299988C427.73 0.299988 427.46 0.469988 427.38 1.07999C427.21 1.68999 425.73 7.42999 425.29 9.07999C425.25 9.29999 425.29 9.42999 425.46 9.50999L426.33 9.80999C426.54 9.89999 426.67 9.72999 426.81 9.50999C427.63 8.02999 429.29 5.15999 430.68 4.54999C432.51 3.93999 435.64 3.93999 437.03 3.93999H438.25V14.82H438.24ZM398.67 17.68C400.06 17.68 402.15 17.77 403.72 17.94C404.67 18.03 405.5 18.63 405.89 19.51C406.11 20.03 406.41 20.99 406.59 21.68C406.68 21.94 406.76 22.03 406.94 21.99L407.9 21.82C408.16 21.78 408.25 21.74 408.25 21.52C408.16 20.56 407.99 18.47 407.99 16.74C407.99 15.61 407.99 12.74 408.08 12.05C408.12 11.79 407.99 11.7 407.82 11.7L406.69 11.61C406.52 11.61 406.34 11.7 406.34 11.96C406.34 12.74 405.9 13.83 405.64 14.39C405.12 15.43 404.6 15.78 403.64 15.96C403.12 16.09 399.99 16.18 398.68 16.18L398.77 3.61999L405.38 3.78999C406.6 3.82999 407.78 4.38999 408.68 4.91999C409.72 5.52999 413.29 9.52999 413.47 9.78999C413.6 10.01 413.73 10.05 413.86 10.01L414.64 9.65999C414.81 9.56999 414.85 9.43999 414.77 9.17999C414.6 8.74999 412.94 2.82999 412.77 2.26999C412.73 2.09999 412.64 2.00999 412.42 2.00999C412.2 2.00999 411.38 2.04999 410.68 2.04999C408.77 2.04999 398.77 2.13999 396.86 2.13999H395.64C392.07 2.17999 390.51 2.00999 389.55 2.00999C389.34 2.00999 389.29 2.08999 389.29 2.30999V3.43999C389.29 3.65999 389.37 3.73999 389.55 3.73999H391.21C392.51 3.73999 392.95 4.08999 393.12 5.25999C393.21 5.86999 393.3 11.26 393.3 14.83V19.09V29.43C393.3 31.04 393.12 31.3 391.12 31.3H389.64C389.29 31.3 389.21 31.39 389.21 31.65V32.69C389.21 32.95 389.3 33.04 389.56 33.04C389.96 33.04 390.56 32.99 391.44 32.96C392.35 32.96 393.53 32.91 395.13 32.91C402.39 32.91 406.87 32.96 409.61 32.96C412.31 33 413.26 33.04 413.48 33.04C414 33.04 414.31 32.78 414.44 32.39L416.53 25.87C416.62 25.65 416.57 25.52 416.44 25.43L415.74 25C415.57 24.91 415.44 24.96 415.26 25.17C414.44 26.21 412 29.08 411.22 29.78C410.09 30.74 408.43 31.17 407.65 31.26C406.78 31.34 404.78 31.44 404 31.44C402.35 31.44 401.31 31.26 400.61 31.09C399.65 30.83 398.87 29.96 398.87 27.7C398.87 26.92 398.78 22.66 398.74 20.31L398.67 17.68ZM374.5 22.86C374.5 21.6 375.02 21.25 375.8 21.25H377.28C377.54 21.25 377.63 21.16 377.63 20.9V19.81C377.63 19.59 377.54 19.51 377.19 19.51C376.76 19.51 375.28 19.64 371.62 19.64C368.06 19.64 365.97 19.51 365.45 19.51C365.27 19.51 365.18 19.59 365.18 19.86V20.86C365.18 21.08 365.27 21.25 365.53 21.25H367.35C368.48 21.25 368.92 21.68 368.92 23.25V26.42C368.92 28.68 368.83 29.9 367.87 30.42C366.39 31.21 364.74 31.55 361.96 31.55C359.18 31.55 357.09 30.59 355 28.59C352.48 26.07 351.09 21.64 351.09 16.5C351.09 12.68 352.57 9.01999 354.65 6.67999C357 3.97999 359.35 3.28999 362.04 3.28999C365.35 3.28999 367.78 4.76999 369.26 6.32999C371 8.15999 372.13 10.59 372.74 12.33C372.82 12.59 372.91 12.72 373.18 12.68L374.22 12.51C374.39 12.47 374.39 12.25 374.39 11.9L373.95 3.19999C373.95 2.85999 373.86 2.58999 373.43 2.58999C373.17 2.58999 373.04 2.71999 372.82 3.02999L372.3 3.71999C372.04 4.06999 371.77 4.19999 371.26 3.80999C369.87 2.76999 366.56 1.45999 362.39 1.45999C357.17 1.45999 353.17 2.93999 350.04 5.71999C346.82 8.49999 345.08 12.68 345.08 16.68C345.08 21.81 346.38 25.55 349.08 28.51C352.03 32.07 357.34 33.55 361.6 33.55C366.82 33.55 370.39 32.51 373.95 30.68C374.39 30.51 374.65 30.33 374.65 29.98C374.65 29.63 374.48 29.2 374.48 28.59V22.86H374.5ZM315.23 5.07999C315.23 4.55999 315.41 4.03999 315.75 3.81999C316.1 3.59999 316.62 3.55999 317.32 3.55999C319.49 3.55999 321.49 4.03999 323.06 5.42999C324.15 6.42999 324.97 8.29999 324.97 10.3C324.97 12.3 323.58 17.77 316.8 17.77C316.28 17.77 315.76 17.68 315.15 17.6L315.23 5.07999ZM315.06 19.17C315.54 19.13 316.28 19.08 316.45 19.08C318.28 19.08 319.28 20.25 320.37 21.77C321.06 22.73 322.28 24.73 322.72 25.51C323.11 26.21 324.81 29.34 325.59 30.55C326.15 31.46 326.98 32.64 327.5 33.03C328.46 32.98 330.11 32.9 331.33 32.9C334.11 32.9 335.24 33.03 335.59 33.03C335.85 33.03 335.94 32.9 335.94 32.59V31.68C335.94 31.51 335.85 31.38 335.59 31.38C334.55 31.38 333.33 31.29 332.5 30.55C331.85 29.94 329.06 26.03 328.8 25.59C328.45 25.07 325.76 20.98 325.23 20.29C324.62 19.51 323.84 18.72 322.62 18.29V18.12C327.4 17.34 330.71 15.07 330.71 9.59999C330.71 7.94999 329.93 6.11999 328.36 4.72999C326.62 3.15999 323.92 1.98999 320.45 1.98999C319.15 1.98999 315.14 2.11999 312.71 2.11999C308.45 2.11999 307.06 1.98999 306.75 1.98999C306.53 1.98999 306.44 2.06999 306.44 2.28999V3.46999C306.44 3.64999 306.53 3.72999 306.75 3.72999H308.44C309.23 3.72999 309.83 4.42999 309.83 5.90999V17.34C309.83 21.43 309.83 25.51 309.74 29.86C309.74 31.03 309.04 31.3 308.09 31.3H306.61C306.43 31.3 306.35 31.43 306.35 31.65V32.65C306.35 32.91 306.44 33.04 306.7 33.04C307.13 33.04 308.18 32.91 312.44 32.91C316.96 32.91 317.83 33.04 318.39 33.04C318.74 33.04 318.87 32.96 318.87 32.65V31.6C318.87 31.43 318.78 31.3 318.52 31.3H316.35C315.65 31.3 315.35 30.52 315.22 29.65C315.14 29 315.05 24.13 315.05 21.52V19.17H315.06ZM277.36 3.37999C281.53 3.37999 287.97 8.76999 287.97 18.25C287.97 21.9 286.58 31.64 277.79 31.64C274.14 31.64 267.18 27.64 267.18 16.33C267.18 12.85 268.44 8.36999 271.09 5.80999C274.06 2.94999 276.58 3.37999 277.36 3.37999ZM277.54 1.46999C273.8 1.46999 269.11 2.33999 265.28 7.03999C262.02 11.08 261.28 15.21 261.28 17.82C261.28 24.08 264.54 28.82 267.63 30.69C271.11 32.78 274.85 33.56 277.46 33.56C283.98 33.56 287.72 30.87 290.51 27.39C292.86 24.43 293.73 21.04 293.73 17.82C293.73 11.91 291.08 7.59999 287.82 4.94999C284.24 2.07999 280.76 1.46999 277.54 1.46999ZM232.28 17.68C233.67 17.68 235.76 17.77 237.32 17.94C238.28 18.03 239.1 18.63 239.49 19.51C239.71 20.03 240.02 20.99 240.19 21.68C240.27 21.94 240.36 22.03 240.54 21.99L241.5 21.82C241.76 21.78 241.85 21.74 241.85 21.52C241.76 20.56 241.59 18.47 241.59 16.74C241.59 15.61 241.59 12.74 241.68 12.05C241.72 11.79 241.59 11.7 241.42 11.7L240.29 11.61C240.12 11.61 239.94 11.7 239.94 11.96C239.94 12.74 239.5 13.83 239.24 14.39C238.72 15.43 238.2 15.78 237.24 15.96C236.72 16.09 233.59 16.18 232.29 16.18L232.37 3.61999L238.98 3.78999C240.2 3.82999 241.37 4.38999 242.28 4.91999C243.32 5.52999 246.89 9.52999 247.06 9.78999C247.19 10.01 247.32 10.05 247.45 10.01L248.23 9.65999C248.4 9.56999 248.45 9.43999 248.36 9.17999C248.19 8.74999 246.53 2.82999 246.36 2.26999C246.31 2.09999 246.23 2.00999 246.01 2.00999C245.8 2.00999 244.97 2.04999 244.27 2.04999C242.36 2.04999 232.36 2.13999 230.44 2.13999H229.22C225.66 2.17999 224.09 2.00999 223.13 2.00999C222.91 2.00999 222.87 2.08999 222.87 2.30999V3.43999C222.87 3.65999 222.95 3.73999 223.13 3.73999H224.78C226.08 3.73999 226.52 4.08999 226.69 5.25999C226.78 5.86999 226.87 11.26 226.87 14.83V19.09V29.43C226.87 31.04 226.69 31.3 224.69 31.3H223.21C222.87 31.3 222.78 31.39 222.78 31.65V32.69C222.78 32.95 222.87 33.04 223.13 33.04C223.52 33.04 224.13 32.99 225 32.96C225.91 32.96 227.09 32.91 228.69 32.91C235.95 32.91 240.43 32.96 243.18 32.96C245.87 33 246.83 33.04 247.05 33.04C247.57 33.04 247.88 32.78 248.01 32.39L250.1 25.87C250.19 25.65 250.14 25.52 250.01 25.43L249.32 25C249.15 24.91 249.01 24.96 248.84 25.17C248.01 26.21 245.58 29.08 244.8 29.78C243.67 30.74 242.01 31.17 241.23 31.26C240.36 31.34 238.36 31.44 237.58 31.44C235.93 31.44 234.88 31.26 234.19 31.09C233.24 30.83 232.45 29.96 232.45 27.7C232.45 26.92 232.36 22.66 232.32 20.31L232.28 17.68ZM208.1 22.86C208.1 21.6 208.62 21.25 209.4 21.25H210.88C211.14 21.25 211.23 21.16 211.23 20.9V19.81C211.23 19.59 211.14 19.51 210.79 19.51C210.36 19.51 208.88 19.64 205.22 19.64C201.66 19.64 199.57 19.51 199.05 19.51C198.88 19.51 198.79 19.59 198.79 19.86V20.86C198.79 21.08 198.88 21.25 199.13 21.25H200.96C202.09 21.25 202.52 21.68 202.52 23.25V26.42C202.52 28.68 202.43 29.9 201.47 30.42C199.99 31.21 198.34 31.55 195.56 31.55C192.78 31.55 190.69 30.59 188.6 28.59C186.08 26.07 184.69 21.64 184.69 16.5C184.69 12.68 186.17 9.01999 188.26 6.67999C190.61 3.97999 192.96 3.28999 195.65 3.28999C198.96 3.28999 201.39 4.76999 202.87 6.32999C204.61 8.15999 205.74 10.59 206.35 12.33C206.44 12.59 206.53 12.72 206.79 12.68L207.83 12.51C208 12.47 208 12.25 208 11.9L207.57 3.19999C207.57 2.85999 207.48 2.58999 207.05 2.58999C206.79 2.58999 206.66 2.71999 206.44 3.02999L205.91 3.71999C205.65 4.06999 205.39 4.19999 204.87 3.80999C203.48 2.76999 200.17 1.45999 196 1.45999C190.78 1.45999 186.78 2.93999 183.65 5.71999C180.43 8.49999 178.69 12.68 178.69 16.68C178.69 21.81 180 25.55 182.69 28.51C185.65 32.07 190.95 33.55 195.21 33.55C200.43 33.55 203.99 32.51 207.56 30.68C207.99 30.51 208.25 30.33 208.25 29.98C208.25 29.63 208.08 29.2 208.08 28.59V22.86H208.1Z" fill="#597693"/>
</g>
<defs>
<clipPath id="clip0_12_135">
<rect width="1046.64" height="145.14" fill="white"/>
</clipPath>
</defs>
</svg>
